<mxfile host="app.diagrams.net" modified="2021-02-06T13:08:16.108Z" agent="5.0 (X11)" etag="i7Ef_fpsSyLgn3aDwH6E" version="14.2.9" type="github" pages="3">
  <diagram name="Elección Tipo Referencia" id="Jq4Y_yKHoHOC3Q39Anz7">
    <mxGraphModel dx="1350" dy="804" grid="1" gridSize="10" guides="1" tooltips="1" connect="1" arrows="1" fold="1" page="1" pageScale="1" pageWidth="827" pageHeight="1169" math="0" shadow="0">
      <root>
        <mxCell id="8XxVPp3E1e53724D_Ses-0" />
        <mxCell id="8XxVPp3E1e53724D_Ses-1" parent="8XxVPp3E1e53724D_Ses-0" />
        <mxCell id="8XxVPp3E1e53724D_Ses-2" value="Creo una class" style="rounded=0;whiteSpace=wrap;html=1;" vertex="1" parent="8XxVPp3E1e53724D_Ses-1">
          <mxGeometry x="354" y="100" width="120" height="60" as="geometry" />
        </mxCell>
        <mxCell id="8XxVPp3E1e53724D_Ses-3" value="¿Repito código?" style="rhombus;whiteSpace=wrap;html=1;" vertex="1" parent="8XxVPp3E1e53724D_Ses-1">
          <mxGeometry x="374" y="210" width="80" height="80" as="geometry" />
        </mxCell>
        <mxCell id="8XxVPp3E1e53724D_Ses-4" value="¿Es válida una herencia simple?" style="rhombus;whiteSpace=wrap;html=1;" vertex="1" parent="8XxVPp3E1e53724D_Ses-1">
          <mxGeometry x="150" y="320" width="80" height="80" as="geometry" />
        </mxCell>
        <mxCell id="8XxVPp3E1e53724D_Ses-5" value="Refactorizo extrayendo una interface con lo mínimo" style="rounded=0;whiteSpace=wrap;html=1;" vertex="1" parent="8XxVPp3E1e53724D_Ses-1">
          <mxGeometry x="354" y="330" width="120" height="60" as="geometry" />
        </mxCell>
        <mxCell id="8XxVPp3E1e53724D_Ses-6" value="¿Se pueden instanciar objetos de ese tipo?" style="rhombus;whiteSpace=wrap;html=1;" vertex="1" parent="8XxVPp3E1e53724D_Ses-1">
          <mxGeometry x="150" y="500" width="80" height="80" as="geometry" />
        </mxCell>
        <mxCell id="8XxVPp3E1e53724D_Ses-7" value="SI" style="endArrow=classic;html=1;entryX=0.5;entryY=0;entryDx=0;entryDy=0;exitX=0;exitY=0.5;exitDx=0;exitDy=0;" edge="1" parent="8XxVPp3E1e53724D_Ses-1" source="8XxVPp3E1e53724D_Ses-3" target="8XxVPp3E1e53724D_Ses-4">
          <mxGeometry x="-0.3386" width="50" height="50" relative="1" as="geometry">
            <mxPoint x="390" y="480" as="sourcePoint" />
            <mxPoint x="440" y="430" as="targetPoint" />
            <Array as="points">
              <mxPoint x="190" y="250" />
            </Array>
            <mxPoint as="offset" />
          </mxGeometry>
        </mxCell>
        <mxCell id="8XxVPp3E1e53724D_Ses-8" value="" style="endArrow=classic;html=1;exitX=0.5;exitY=1;exitDx=0;exitDy=0;entryX=0.5;entryY=0;entryDx=0;entryDy=0;" edge="1" parent="8XxVPp3E1e53724D_Ses-1" source="8XxVPp3E1e53724D_Ses-2" target="8XxVPp3E1e53724D_Ses-3">
          <mxGeometry width="50" height="50" relative="1" as="geometry">
            <mxPoint x="390" y="500" as="sourcePoint" />
            <mxPoint x="440" y="450" as="targetPoint" />
          </mxGeometry>
        </mxCell>
        <mxCell id="8XxVPp3E1e53724D_Ses-9" value="SI" style="endArrow=classic;html=1;exitX=0.5;exitY=1;exitDx=0;exitDy=0;entryX=0.5;entryY=0;entryDx=0;entryDy=0;" edge="1" parent="8XxVPp3E1e53724D_Ses-1" source="8XxVPp3E1e53724D_Ses-4" target="8XxVPp3E1e53724D_Ses-6">
          <mxGeometry width="50" height="50" relative="1" as="geometry">
            <mxPoint x="390" y="500" as="sourcePoint" />
            <mxPoint x="440" y="450" as="targetPoint" />
          </mxGeometry>
        </mxCell>
        <mxCell id="8XxVPp3E1e53724D_Ses-10" value="NO" style="endArrow=classic;html=1;exitX=1;exitY=0.5;exitDx=0;exitDy=0;entryX=0;entryY=0.5;entryDx=0;entryDy=0;" edge="1" parent="8XxVPp3E1e53724D_Ses-1" source="8XxVPp3E1e53724D_Ses-4" target="8XxVPp3E1e53724D_Ses-5">
          <mxGeometry width="50" height="50" relative="1" as="geometry">
            <mxPoint x="390" y="500" as="sourcePoint" />
            <mxPoint x="440" y="450" as="targetPoint" />
          </mxGeometry>
        </mxCell>
        <mxCell id="8XxVPp3E1e53724D_Ses-11" value="Refactorizo extrayendo una clase abstracta" style="rounded=0;whiteSpace=wrap;html=1;" vertex="1" parent="8XxVPp3E1e53724D_Ses-1">
          <mxGeometry x="354" y="510" width="120" height="60" as="geometry" />
        </mxCell>
        <mxCell id="8XxVPp3E1e53724D_Ses-12" value="NO" style="endArrow=classic;html=1;exitX=1;exitY=0.5;exitDx=0;exitDy=0;entryX=0;entryY=0.5;entryDx=0;entryDy=0;" edge="1" parent="8XxVPp3E1e53724D_Ses-1" source="8XxVPp3E1e53724D_Ses-6" target="8XxVPp3E1e53724D_Ses-11">
          <mxGeometry width="50" height="50" relative="1" as="geometry">
            <mxPoint x="390" y="500" as="sourcePoint" />
            <mxPoint x="440" y="450" as="targetPoint" />
          </mxGeometry>
        </mxCell>
        <mxCell id="8XxVPp3E1e53724D_Ses-13" value="Refactorizo extrayendo una clase " style="rounded=0;whiteSpace=wrap;html=1;" vertex="1" parent="8XxVPp3E1e53724D_Ses-1">
          <mxGeometry x="130" y="660" width="120" height="60" as="geometry" />
        </mxCell>
        <mxCell id="8XxVPp3E1e53724D_Ses-14" value="SI" style="endArrow=classic;html=1;exitX=0.5;exitY=1;exitDx=0;exitDy=0;entryX=0.5;entryY=0;entryDx=0;entryDy=0;" edge="1" parent="8XxVPp3E1e53724D_Ses-1" source="8XxVPp3E1e53724D_Ses-6" target="8XxVPp3E1e53724D_Ses-13">
          <mxGeometry width="50" height="50" relative="1" as="geometry">
            <mxPoint x="390" y="500" as="sourcePoint" />
            <mxPoint x="440" y="450" as="targetPoint" />
          </mxGeometry>
        </mxCell>
        <mxCell id="8XxVPp3E1e53724D_Ses-15" value="&lt;div&gt;&lt;u&gt;&lt;b&gt;&lt;font style=&quot;font-size: 16px&quot;&gt;MAPA MENTAL BÁSICO PARA UN DISEÑO EMERGENTE&lt;/font&gt;&lt;/b&gt;&lt;/u&gt;&lt;/div&gt;&lt;div&gt;&lt;u&gt;&lt;b&gt;&lt;font style=&quot;font-size: 16px&quot;&gt;(&lt;/font&gt;&lt;/b&gt;&lt;/u&gt;&lt;u&gt;&lt;b&gt;&lt;font style=&quot;font-size: 16px&quot;&gt;&lt;u&gt;&lt;b&gt;&lt;font style=&quot;font-size: 16px&quot;&gt;TIPOS DE REFERENCIA&lt;/font&gt;&lt;/b&gt;&lt;/u&gt;)&lt;br&gt;&lt;/font&gt;&lt;/b&gt;&lt;/u&gt;&lt;/div&gt;" style="text;html=1;strokeColor=none;fillColor=none;align=center;verticalAlign=middle;whiteSpace=wrap;rounded=0;" vertex="1" parent="8XxVPp3E1e53724D_Ses-1">
          <mxGeometry x="159" y="40" width="510" height="20" as="geometry" />
        </mxCell>
        <mxCell id="SS7OybP3mIF294FVzurm-0" value="¿Es un subtipo?" style="rhombus;whiteSpace=wrap;html=1;" vertex="1" parent="8XxVPp3E1e53724D_Ses-1">
          <mxGeometry x="600" y="210" width="80" height="80" as="geometry" />
        </mxCell>
        <mxCell id="SS7OybP3mIF294FVzurm-1" value="Coloco el código en el nivel jerárquico adecuado" style="rounded=0;whiteSpace=wrap;html=1;" vertex="1" parent="8XxVPp3E1e53724D_Ses-1">
          <mxGeometry x="580" y="330" width="120" height="60" as="geometry" />
        </mxCell>
        <mxCell id="SS7OybP3mIF294FVzurm-2" value="NO" style="endArrow=classic;html=1;exitX=1;exitY=0.5;exitDx=0;exitDy=0;entryX=0;entryY=0.5;entryDx=0;entryDy=0;" edge="1" parent="8XxVPp3E1e53724D_Ses-1" source="8XxVPp3E1e53724D_Ses-3" target="SS7OybP3mIF294FVzurm-0">
          <mxGeometry width="50" height="50" relative="1" as="geometry">
            <mxPoint x="560" y="230" as="sourcePoint" />
            <mxPoint x="640" y="330" as="targetPoint" />
          </mxGeometry>
        </mxCell>
        <mxCell id="SS7OybP3mIF294FVzurm-3" value="SI" style="endArrow=classic;html=1;entryX=0.5;entryY=0;entryDx=0;entryDy=0;exitX=0.5;exitY=1;exitDx=0;exitDy=0;" edge="1" parent="8XxVPp3E1e53724D_Ses-1" source="SS7OybP3mIF294FVzurm-0" target="SS7OybP3mIF294FVzurm-1">
          <mxGeometry width="50" height="50" relative="1" as="geometry">
            <mxPoint x="390" y="410" as="sourcePoint" />
            <mxPoint x="440" y="360" as="targetPoint" />
          </mxGeometry>
        </mxCell>
      </root>
    </mxGraphModel>
  </diagram>
  <diagram id="cohJdwAi2Pd4bMlTq_dh" name="Elección Grupo de elementos">
    <mxGraphModel dx="1350" dy="804" grid="1" gridSize="10" guides="1" tooltips="1" connect="1" arrows="1" fold="1" page="1" pageScale="1" pageWidth="827" pageHeight="1169" math="0" shadow="0">
      <root>
        <mxCell id="0" />
        <mxCell id="1" parent="0" />
        <mxCell id="zt9d32OmT7QIj7NIbt18-12" value="" style="endArrow=classic;html=1;fontFamily=Courier New;entryX=1;entryY=0.5;entryDx=0;entryDy=0;" edge="1" parent="1" target="QVF6yioCwgsZyvocX15a-13">
          <mxGeometry width="50" height="50" relative="1" as="geometry">
            <mxPoint x="610" y="600" as="sourcePoint" />
            <mxPoint x="440" y="360" as="targetPoint" />
            <Array as="points">
              <mxPoint x="610" y="690" />
            </Array>
          </mxGeometry>
        </mxCell>
        <mxCell id="zt9d32OmT7QIj7NIbt18-9" value="" style="endArrow=classic;html=1;exitX=1;exitY=0.5;exitDx=0;exitDy=0;entryX=0.5;entryY=0;entryDx=0;entryDy=0;" edge="1" parent="1" source="zt9d32OmT7QIj7NIbt18-4" target="zt9d32OmT7QIj7NIbt18-3">
          <mxGeometry width="50" height="50" relative="1" as="geometry">
            <mxPoint x="390" y="410" as="sourcePoint" />
            <mxPoint x="440" y="360" as="targetPoint" />
            <Array as="points">
              <mxPoint x="710" y="420" />
            </Array>
          </mxGeometry>
        </mxCell>
        <mxCell id="QVF6yioCwgsZyvocX15a-1" value="Debo crear varios elementos unidos en un tipo" style="rounded=0;whiteSpace=wrap;html=1;" vertex="1" parent="1">
          <mxGeometry x="354" y="100" width="120" height="60" as="geometry" />
        </mxCell>
        <mxCell id="QVF6yioCwgsZyvocX15a-2" value="¿El número de elementos cambiará?" style="rhombus;whiteSpace=wrap;html=1;" vertex="1" parent="1">
          <mxGeometry x="374" y="210" width="80" height="80" as="geometry" />
        </mxCell>
        <mxCell id="QVF6yioCwgsZyvocX15a-4" value="¿Importa el orden?" style="rhombus;whiteSpace=wrap;html=1;" vertex="1" parent="1">
          <mxGeometry x="150" y="320" width="80" height="80" as="geometry" />
        </mxCell>
        <mxCell id="QVF6yioCwgsZyvocX15a-5" value="List" style="rounded=0;whiteSpace=wrap;html=1;fontFamily=Courier New;" vertex="1" parent="1">
          <mxGeometry x="354" y="330" width="120" height="60" as="geometry" />
        </mxCell>
        <mxCell id="QVF6yioCwgsZyvocX15a-6" value="¿Se pueden repetir los elementos?" style="rhombus;whiteSpace=wrap;html=1;" vertex="1" parent="1">
          <mxGeometry x="150" y="500" width="80" height="80" as="geometry" />
        </mxCell>
        <mxCell id="QVF6yioCwgsZyvocX15a-7" value="SI" style="endArrow=classic;html=1;entryX=0.5;entryY=0;entryDx=0;entryDy=0;exitX=0;exitY=0.5;exitDx=0;exitDy=0;" edge="1" parent="1" source="QVF6yioCwgsZyvocX15a-2" target="QVF6yioCwgsZyvocX15a-4">
          <mxGeometry x="-0.3386" width="50" height="50" relative="1" as="geometry">
            <mxPoint x="390" y="480" as="sourcePoint" />
            <mxPoint x="440" y="430" as="targetPoint" />
            <Array as="points">
              <mxPoint x="190" y="250" />
            </Array>
            <mxPoint as="offset" />
          </mxGeometry>
        </mxCell>
        <mxCell id="QVF6yioCwgsZyvocX15a-8" value="" style="endArrow=classic;html=1;exitX=0.5;exitY=1;exitDx=0;exitDy=0;entryX=0.5;entryY=0;entryDx=0;entryDy=0;" edge="1" parent="1" source="QVF6yioCwgsZyvocX15a-1" target="QVF6yioCwgsZyvocX15a-2">
          <mxGeometry width="50" height="50" relative="1" as="geometry">
            <mxPoint x="390" y="500" as="sourcePoint" />
            <mxPoint x="440" y="450" as="targetPoint" />
          </mxGeometry>
        </mxCell>
        <mxCell id="QVF6yioCwgsZyvocX15a-9" value="NO" style="endArrow=classic;html=1;exitX=0.5;exitY=1;exitDx=0;exitDy=0;entryX=0.5;entryY=0;entryDx=0;entryDy=0;" edge="1" parent="1" source="QVF6yioCwgsZyvocX15a-4" target="QVF6yioCwgsZyvocX15a-6">
          <mxGeometry width="50" height="50" relative="1" as="geometry">
            <mxPoint x="390" y="500" as="sourcePoint" />
            <mxPoint x="440" y="450" as="targetPoint" />
          </mxGeometry>
        </mxCell>
        <mxCell id="QVF6yioCwgsZyvocX15a-10" value="SI" style="endArrow=classic;html=1;exitX=1;exitY=0.5;exitDx=0;exitDy=0;entryX=0;entryY=0.5;entryDx=0;entryDy=0;" edge="1" parent="1" source="QVF6yioCwgsZyvocX15a-4" target="QVF6yioCwgsZyvocX15a-5">
          <mxGeometry width="50" height="50" relative="1" as="geometry">
            <mxPoint x="390" y="500" as="sourcePoint" />
            <mxPoint x="440" y="450" as="targetPoint" />
          </mxGeometry>
        </mxCell>
        <mxCell id="QVF6yioCwgsZyvocX15a-11" value="Set" style="rounded=0;whiteSpace=wrap;html=1;fontFamily=Courier New;" vertex="1" parent="1">
          <mxGeometry x="354" y="510" width="120" height="60" as="geometry" />
        </mxCell>
        <mxCell id="QVF6yioCwgsZyvocX15a-12" value="NO" style="endArrow=classic;html=1;exitX=1;exitY=0.5;exitDx=0;exitDy=0;entryX=0;entryY=0.5;entryDx=0;entryDy=0;" edge="1" parent="1" source="QVF6yioCwgsZyvocX15a-6" target="QVF6yioCwgsZyvocX15a-11">
          <mxGeometry width="50" height="50" relative="1" as="geometry">
            <mxPoint x="390" y="500" as="sourcePoint" />
            <mxPoint x="440" y="450" as="targetPoint" />
          </mxGeometry>
        </mxCell>
        <mxCell id="QVF6yioCwgsZyvocX15a-13" value="Collection" style="rounded=0;whiteSpace=wrap;html=1;fontFamily=Courier New;" vertex="1" parent="1">
          <mxGeometry x="130" y="660" width="120" height="60" as="geometry" />
        </mxCell>
        <mxCell id="QVF6yioCwgsZyvocX15a-14" value="SI" style="endArrow=classic;html=1;exitX=0.5;exitY=1;exitDx=0;exitDy=0;entryX=0.5;entryY=0;entryDx=0;entryDy=0;" edge="1" parent="1" source="QVF6yioCwgsZyvocX15a-6" target="QVF6yioCwgsZyvocX15a-13">
          <mxGeometry width="50" height="50" relative="1" as="geometry">
            <mxPoint x="390" y="500" as="sourcePoint" />
            <mxPoint x="440" y="450" as="targetPoint" />
          </mxGeometry>
        </mxCell>
        <mxCell id="QVF6yioCwgsZyvocX15a-15" value="&lt;div&gt;&lt;u&gt;&lt;b&gt;&lt;font style=&quot;font-size: 16px&quot;&gt;MAPA MENTAL BÁSICO PARA UN DISEÑO EMERGENTE&lt;/font&gt;&lt;/b&gt;&lt;/u&gt;&lt;/div&gt;&lt;div&gt;&lt;u&gt;&lt;b&gt;&lt;font style=&quot;font-size: 16px&quot;&gt;(&lt;/font&gt;&lt;/b&gt;&lt;/u&gt;&lt;u&gt;&lt;b&gt;&lt;font style=&quot;font-size: 16px&quot;&gt;&lt;u&gt;&lt;b&gt;&lt;font style=&quot;font-size: 16px&quot;&gt;GRUPO DE ELEMENTOS&lt;/font&gt;&lt;/b&gt;&lt;/u&gt;)&lt;br&gt;&lt;/font&gt;&lt;/b&gt;&lt;/u&gt;&lt;/div&gt;" style="text;html=1;strokeColor=none;fillColor=none;align=center;verticalAlign=middle;whiteSpace=wrap;rounded=0;" vertex="1" parent="1">
          <mxGeometry x="159" y="40" width="510" height="20" as="geometry" />
        </mxCell>
        <mxCell id="zt9d32OmT7QIj7NIbt18-1" value="¿Quiero usar valores primitivos?" style="rhombus;whiteSpace=wrap;html=1;" vertex="1" parent="1">
          <mxGeometry x="570" y="210" width="80" height="80" as="geometry" />
        </mxCell>
        <mxCell id="zt9d32OmT7QIj7NIbt18-2" value="NO" style="endArrow=classic;html=1;exitX=1;exitY=0.5;exitDx=0;exitDy=0;entryX=0;entryY=0.5;entryDx=0;entryDy=0;" edge="1" parent="1" source="QVF6yioCwgsZyvocX15a-2" target="zt9d32OmT7QIj7NIbt18-1">
          <mxGeometry width="50" height="50" relative="1" as="geometry">
            <mxPoint x="390" y="410" as="sourcePoint" />
            <mxPoint x="440" y="360" as="targetPoint" />
          </mxGeometry>
        </mxCell>
        <mxCell id="zt9d32OmT7QIj7NIbt18-3" value="array" style="rounded=0;whiteSpace=wrap;html=1;fontFamily=Courier New;" vertex="1" parent="1">
          <mxGeometry x="650" y="660" width="120" height="60" as="geometry" />
        </mxCell>
        <mxCell id="zt9d32OmT7QIj7NIbt18-4" value="¿Alguna dependencia requiere que sea un array?" style="rhombus;whiteSpace=wrap;html=1;" vertex="1" parent="1">
          <mxGeometry x="570" y="380" width="80" height="80" as="geometry" />
        </mxCell>
        <mxCell id="zt9d32OmT7QIj7NIbt18-5" value="¿Los elementos son de un tipo genérico?" style="rhombus;whiteSpace=wrap;html=1;" vertex="1" parent="1">
          <mxGeometry x="570" y="520" width="80" height="80" as="geometry" />
        </mxCell>
        <mxCell id="zt9d32OmT7QIj7NIbt18-6" value="NO" style="endArrow=classic;html=1;exitX=0.5;exitY=1;exitDx=0;exitDy=0;entryX=0.5;entryY=0;entryDx=0;entryDy=0;" edge="1" parent="1" source="zt9d32OmT7QIj7NIbt18-1" target="zt9d32OmT7QIj7NIbt18-4">
          <mxGeometry width="50" height="50" relative="1" as="geometry">
            <mxPoint x="390" y="410" as="sourcePoint" />
            <mxPoint x="440" y="360" as="targetPoint" />
          </mxGeometry>
        </mxCell>
        <mxCell id="zt9d32OmT7QIj7NIbt18-7" value="SI" style="endArrow=classic;html=1;exitX=1;exitY=0.5;exitDx=0;exitDy=0;entryX=0.5;entryY=0;entryDx=0;entryDy=0;" edge="1" parent="1" source="zt9d32OmT7QIj7NIbt18-1" target="zt9d32OmT7QIj7NIbt18-3">
          <mxGeometry x="0.3617" width="50" height="50" relative="1" as="geometry">
            <mxPoint x="390" y="410" as="sourcePoint" />
            <mxPoint x="440" y="360" as="targetPoint" />
            <Array as="points">
              <mxPoint x="710" y="250" />
            </Array>
            <mxPoint as="offset" />
          </mxGeometry>
        </mxCell>
        <mxCell id="zt9d32OmT7QIj7NIbt18-8" value="NO" style="endArrow=classic;html=1;entryX=0.5;entryY=0;entryDx=0;entryDy=0;" edge="1" parent="1" source="zt9d32OmT7QIj7NIbt18-4" target="zt9d32OmT7QIj7NIbt18-5">
          <mxGeometry width="50" height="50" relative="1" as="geometry">
            <mxPoint x="390" y="410" as="sourcePoint" />
            <mxPoint x="440" y="360" as="targetPoint" />
          </mxGeometry>
        </mxCell>
        <mxCell id="zt9d32OmT7QIj7NIbt18-10" value="NO" style="endArrow=classic;html=1;exitX=0.5;exitY=1;exitDx=0;exitDy=0;entryX=0;entryY=0.5;entryDx=0;entryDy=0;" edge="1" parent="1" source="zt9d32OmT7QIj7NIbt18-5" target="zt9d32OmT7QIj7NIbt18-3">
          <mxGeometry width="50" height="50" relative="1" as="geometry">
            <mxPoint x="390" y="410" as="sourcePoint" />
            <mxPoint x="440" y="360" as="targetPoint" />
            <Array as="points">
              <mxPoint x="610" y="690" />
            </Array>
          </mxGeometry>
        </mxCell>
        <mxCell id="zt9d32OmT7QIj7NIbt18-11" value="SI" style="endArrow=classic;html=1;exitX=0;exitY=0.5;exitDx=0;exitDy=0;entryX=1;entryY=0.5;entryDx=0;entryDy=0;" edge="1" parent="1" source="zt9d32OmT7QIj7NIbt18-5" target="QVF6yioCwgsZyvocX15a-13">
          <mxGeometry x="-0.5111" width="50" height="50" relative="1" as="geometry">
            <mxPoint x="390" y="410" as="sourcePoint" />
            <mxPoint x="440" y="360" as="targetPoint" />
            <Array as="points">
              <mxPoint x="520" y="560" />
              <mxPoint x="520" y="690" />
            </Array>
            <mxPoint as="offset" />
          </mxGeometry>
        </mxCell>
      </root>
    </mxGraphModel>
  </diagram>
  <diagram name="Elección modificadores" id="kB_RIp6BsxhG6whIuUyi">
    <mxGraphModel dx="1350" dy="804" grid="1" gridSize="10" guides="1" tooltips="1" connect="1" arrows="1" fold="1" page="1" pageScale="1" pageWidth="827" pageHeight="1169" math="0" shadow="0">
      <root>
        <mxCell id="0J6D3aMpqXegVm9H5sP3-0" />
        <mxCell id="0J6D3aMpqXegVm9H5sP3-1" parent="0J6D3aMpqXegVm9H5sP3-0" />
        <mxCell id="0J6D3aMpqXegVm9H5sP3-5" value="Defino un/a " style="rhombus;whiteSpace=wrap;html=1;" vertex="1" parent="0J6D3aMpqXegVm9H5sP3-1">
          <mxGeometry x="270" y="190" width="80" height="80" as="geometry" />
        </mxCell>
        <mxCell id="0J6D3aMpqXegVm9H5sP3-7" value="static" style="rounded=0;whiteSpace=wrap;html=1;fontFamily=Courier New;" vertex="1" parent="0J6D3aMpqXegVm9H5sP3-1">
          <mxGeometry x="100" y="580" width="120" height="60" as="geometry" />
        </mxCell>
        <mxCell id="0J6D3aMpqXegVm9H5sP3-8" value="¿Es funcional?" style="rhombus;whiteSpace=wrap;html=1;" vertex="1" parent="0J6D3aMpqXegVm9H5sP3-1">
          <mxGeometry x="120" y="290" width="80" height="80" as="geometry" />
        </mxCell>
        <mxCell id="0J6D3aMpqXegVm9H5sP3-9" value="método" style="endArrow=classic;html=1;exitX=0;exitY=0.5;exitDx=0;exitDy=0;" edge="1" parent="0J6D3aMpqXegVm9H5sP3-1" source="0J6D3aMpqXegVm9H5sP3-5">
          <mxGeometry x="-0.3386" width="50" height="50" relative="1" as="geometry">
            <mxPoint x="360" y="550" as="sourcePoint" />
            <mxPoint x="160" y="290" as="targetPoint" />
            <Array as="points">
              <mxPoint x="160" y="230" />
            </Array>
            <mxPoint as="offset" />
          </mxGeometry>
        </mxCell>
        <mxCell id="0J6D3aMpqXegVm9H5sP3-13" value="public" style="rounded=0;whiteSpace=wrap;html=1;fontFamily=Courier New;" vertex="1" parent="0J6D3aMpqXegVm9H5sP3-1">
          <mxGeometry x="540" y="730" width="120" height="60" as="geometry" />
        </mxCell>
        <mxCell id="0J6D3aMpqXegVm9H5sP3-15" value="private" style="rounded=0;whiteSpace=wrap;html=1;fontFamily=Courier New;" vertex="1" parent="0J6D3aMpqXegVm9H5sP3-1">
          <mxGeometry x="390" y="730" width="120" height="60" as="geometry" />
        </mxCell>
        <mxCell id="0J6D3aMpqXegVm9H5sP3-17" value="&lt;div&gt;&lt;u&gt;&lt;b&gt;&lt;font style=&quot;font-size: 16px&quot;&gt;MAPA MENTAL BÁSICO PARA UN DISEÑO EMERGENTE&lt;/font&gt;&lt;/b&gt;&lt;/u&gt;&lt;/div&gt;&lt;div&gt;&lt;u&gt;&lt;b&gt;&lt;font style=&quot;font-size: 16px&quot;&gt;(&lt;/font&gt;&lt;/b&gt;&lt;/u&gt;&lt;u&gt;&lt;b&gt;&lt;font style=&quot;font-size: 16px&quot;&gt;MODIFICADORES)&lt;br&gt;&lt;/font&gt;&lt;/b&gt;&lt;/u&gt;&lt;/div&gt;" style="text;html=1;strokeColor=none;fillColor=none;align=center;verticalAlign=middle;whiteSpace=wrap;rounded=0;" vertex="1" parent="0J6D3aMpqXegVm9H5sP3-1">
          <mxGeometry x="159" y="40" width="510" height="20" as="geometry" />
        </mxCell>
        <mxCell id="0J6D3aMpqXegVm9H5sP3-18" value="¿Es única para toda la clase?" style="rhombus;whiteSpace=wrap;html=1;" vertex="1" parent="0J6D3aMpqXegVm9H5sP3-1">
          <mxGeometry x="410" y="280" width="80" height="80" as="geometry" />
        </mxCell>
        <mxCell id="0J6D3aMpqXegVm9H5sP3-19" value="variable" style="endArrow=classic;html=1;exitX=1;exitY=0.5;exitDx=0;exitDy=0;entryX=0.5;entryY=0;entryDx=0;entryDy=0;" edge="1" parent="0J6D3aMpqXegVm9H5sP3-1" source="0J6D3aMpqXegVm9H5sP3-5" target="0J6D3aMpqXegVm9H5sP3-18">
          <mxGeometry x="-0.3333" width="50" height="50" relative="1" as="geometry">
            <mxPoint x="286" y="480" as="sourcePoint" />
            <mxPoint x="336" y="430" as="targetPoint" />
            <Array as="points">
              <mxPoint x="450" y="230" />
            </Array>
            <mxPoint as="offset" />
          </mxGeometry>
        </mxCell>
        <mxCell id="0J6D3aMpqXegVm9H5sP3-21" value="¿Necesita acceso para los subtipos?" style="rhombus;whiteSpace=wrap;html=1;" vertex="1" parent="0J6D3aMpqXegVm9H5sP3-1">
          <mxGeometry x="410" y="450" width="80" height="80" as="geometry" />
        </mxCell>
        <mxCell id="0J6D3aMpqXegVm9H5sP3-22" value="¿Necesita acceso en el paquete?" style="rhombus;whiteSpace=wrap;html=1;" vertex="1" parent="0J6D3aMpqXegVm9H5sP3-1">
          <mxGeometry x="410" y="590" width="80" height="80" as="geometry" />
        </mxCell>
        <mxCell id="0J6D3aMpqXegVm9H5sP3-23" value="NO" style="endArrow=classic;html=1;exitX=0.5;exitY=1;exitDx=0;exitDy=0;entryX=0.5;entryY=0;entryDx=0;entryDy=0;" edge="1" parent="0J6D3aMpqXegVm9H5sP3-1" source="0J6D3aMpqXegVm9H5sP3-18" target="0J6D3aMpqXegVm9H5sP3-21">
          <mxGeometry width="50" height="50" relative="1" as="geometry">
            <mxPoint x="230" y="480" as="sourcePoint" />
            <mxPoint x="280" y="430" as="targetPoint" />
          </mxGeometry>
        </mxCell>
        <mxCell id="0J6D3aMpqXegVm9H5sP3-24" value="SI" style="endArrow=classic;html=1;entryX=1;entryY=0.5;entryDx=0;entryDy=0;exitX=0;exitY=0.5;exitDx=0;exitDy=0;" edge="1" parent="0J6D3aMpqXegVm9H5sP3-1" source="0J6D3aMpqXegVm9H5sP3-18" target="0J6D3aMpqXegVm9H5sP3-7">
          <mxGeometry x="0.1379" width="50" height="50" relative="1" as="geometry">
            <mxPoint x="490" y="360" as="sourcePoint" />
            <mxPoint x="410" y="430" as="targetPoint" />
            <Array as="points">
              <mxPoint x="290" y="320" />
              <mxPoint x="290" y="610" />
            </Array>
            <mxPoint as="offset" />
          </mxGeometry>
        </mxCell>
        <mxCell id="0J6D3aMpqXegVm9H5sP3-25" value="NO" style="endArrow=classic;html=1;entryX=0.5;entryY=0;entryDx=0;entryDy=0;" edge="1" parent="0J6D3aMpqXegVm9H5sP3-1" source="0J6D3aMpqXegVm9H5sP3-21" target="0J6D3aMpqXegVm9H5sP3-22">
          <mxGeometry width="50" height="50" relative="1" as="geometry">
            <mxPoint x="230" y="480" as="sourcePoint" />
            <mxPoint x="280" y="430" as="targetPoint" />
          </mxGeometry>
        </mxCell>
        <mxCell id="tL6zu44cMN05sNJDktga-1" value="NO" style="endArrow=classic;html=1;fontFamily=Courier New;exitX=0.5;exitY=1;exitDx=0;exitDy=0;entryX=0.5;entryY=0;entryDx=0;entryDy=0;" edge="1" parent="0J6D3aMpqXegVm9H5sP3-1" source="0J6D3aMpqXegVm9H5sP3-22" target="0J6D3aMpqXegVm9H5sP3-15">
          <mxGeometry width="50" height="50" relative="1" as="geometry">
            <mxPoint x="230" y="510" as="sourcePoint" />
            <mxPoint x="280" y="460" as="targetPoint" />
          </mxGeometry>
        </mxCell>
        <mxCell id="tL6zu44cMN05sNJDktga-2" value="SI" style="endArrow=classic;html=1;fontFamily=Courier New;exitX=1;exitY=0.5;exitDx=0;exitDy=0;entryX=0;entryY=0.5;entryDx=0;entryDy=0;" edge="1" parent="0J6D3aMpqXegVm9H5sP3-1" source="0J6D3aMpqXegVm9H5sP3-21" target="tL6zu44cMN05sNJDktga-8">
          <mxGeometry width="50" height="50" relative="1" as="geometry">
            <mxPoint x="230" y="510" as="sourcePoint" />
            <mxPoint x="510" y="490" as="targetPoint" />
          </mxGeometry>
        </mxCell>
        <mxCell id="tL6zu44cMN05sNJDktga-3" value="protected" style="rounded=0;whiteSpace=wrap;html=1;fontFamily=Courier New;" vertex="1" parent="0J6D3aMpqXegVm9H5sP3-1">
          <mxGeometry x="540" y="600" width="120" height="60" as="geometry" />
        </mxCell>
        <mxCell id="tL6zu44cMN05sNJDktga-4" value="SI" style="endArrow=classic;html=1;fontFamily=Courier New;exitX=0.5;exitY=1;exitDx=0;exitDy=0;" edge="1" parent="0J6D3aMpqXegVm9H5sP3-1" source="0J6D3aMpqXegVm9H5sP3-8" target="tL6zu44cMN05sNJDktga-5">
          <mxGeometry width="50" height="50" relative="1" as="geometry">
            <mxPoint x="360" y="510" as="sourcePoint" />
            <mxPoint x="160" y="440" as="targetPoint" />
          </mxGeometry>
        </mxCell>
        <mxCell id="tL6zu44cMN05sNJDktga-5" value="¿Necesitará sobreescribirse?" style="rhombus;whiteSpace=wrap;html=1;" vertex="1" parent="0J6D3aMpqXegVm9H5sP3-1">
          <mxGeometry x="120" y="430" width="80" height="80" as="geometry" />
        </mxCell>
        <mxCell id="tL6zu44cMN05sNJDktga-6" value="NO" style="endArrow=classic;html=1;fontFamily=Courier New;exitX=0.5;exitY=1;exitDx=0;exitDy=0;entryX=0.5;entryY=0;entryDx=0;entryDy=0;" edge="1" parent="0J6D3aMpqXegVm9H5sP3-1" source="tL6zu44cMN05sNJDktga-5" target="0J6D3aMpqXegVm9H5sP3-7">
          <mxGeometry width="50" height="50" relative="1" as="geometry">
            <mxPoint x="360" y="510" as="sourcePoint" />
            <mxPoint x="410" y="460" as="targetPoint" />
          </mxGeometry>
        </mxCell>
        <mxCell id="tL6zu44cMN05sNJDktga-7" value="" style="endArrow=classic;html=1;fontFamily=Courier New;exitX=0.5;exitY=1;exitDx=0;exitDy=0;entryX=0;entryY=0.5;entryDx=0;entryDy=0;" edge="1" parent="0J6D3aMpqXegVm9H5sP3-1" source="0J6D3aMpqXegVm9H5sP3-7" target="0J6D3aMpqXegVm9H5sP3-21">
          <mxGeometry width="50" height="50" relative="1" as="geometry">
            <mxPoint x="360" y="510" as="sourcePoint" />
            <mxPoint x="410" y="460" as="targetPoint" />
            <Array as="points">
              <mxPoint x="160" y="690" />
              <mxPoint x="350" y="690" />
              <mxPoint x="350" y="490" />
            </Array>
          </mxGeometry>
        </mxCell>
        <mxCell id="tL6zu44cMN05sNJDktga-8" value="¿Necesita acceso en toda la aplicación?" style="rhombus;whiteSpace=wrap;html=1;fontFamily=Courier New;" vertex="1" parent="0J6D3aMpqXegVm9H5sP3-1">
          <mxGeometry x="560" y="450" width="80" height="80" as="geometry" />
        </mxCell>
        <mxCell id="tL6zu44cMN05sNJDktga-9" value="" style="ellipse;whiteSpace=wrap;html=1;aspect=fixed;fontFamily=Courier New;" vertex="1" parent="0J6D3aMpqXegVm9H5sP3-1">
          <mxGeometry x="300" y="120" width="20" height="20" as="geometry" />
        </mxCell>
        <mxCell id="tL6zu44cMN05sNJDktga-10" value="" style="endArrow=classic;html=1;fontFamily=Courier New;exitX=0.5;exitY=1;exitDx=0;exitDy=0;entryX=0.5;entryY=0;entryDx=0;entryDy=0;" edge="1" parent="0J6D3aMpqXegVm9H5sP3-1" source="tL6zu44cMN05sNJDktga-9" target="0J6D3aMpqXegVm9H5sP3-5">
          <mxGeometry width="50" height="50" relative="1" as="geometry">
            <mxPoint x="360" y="500" as="sourcePoint" />
            <mxPoint x="410" y="450" as="targetPoint" />
          </mxGeometry>
        </mxCell>
        <mxCell id="tL6zu44cMN05sNJDktga-11" value="NO" style="endArrow=classic;html=1;fontFamily=Courier New;exitX=0.5;exitY=1;exitDx=0;exitDy=0;entryX=0.5;entryY=0;entryDx=0;entryDy=0;" edge="1" parent="0J6D3aMpqXegVm9H5sP3-1" source="tL6zu44cMN05sNJDktga-8" target="tL6zu44cMN05sNJDktga-3">
          <mxGeometry width="50" height="50" relative="1" as="geometry">
            <mxPoint x="334" y="580" as="sourcePoint" />
            <mxPoint x="384" y="530" as="targetPoint" />
          </mxGeometry>
        </mxCell>
        <mxCell id="tL6zu44cMN05sNJDktga-12" value="SI" style="endArrow=classic;html=1;fontFamily=Courier New;exitX=1;exitY=0.5;exitDx=0;exitDy=0;entryX=1;entryY=0.5;entryDx=0;entryDy=0;" edge="1" parent="0J6D3aMpqXegVm9H5sP3-1" source="tL6zu44cMN05sNJDktga-8" target="0J6D3aMpqXegVm9H5sP3-13">
          <mxGeometry x="-0.2153" width="50" height="50" relative="1" as="geometry">
            <mxPoint x="334" y="580" as="sourcePoint" />
            <mxPoint x="724" y="560" as="targetPoint" />
            <Array as="points">
              <mxPoint x="724" y="490" />
              <mxPoint x="724" y="760" />
            </Array>
            <mxPoint as="offset" />
          </mxGeometry>
        </mxCell>
        <mxCell id="tL6zu44cMN05sNJDktga-13" value="¿Es una constante?" style="rhombus;whiteSpace=wrap;html=1;fontFamily=Courier New;" vertex="1" parent="0J6D3aMpqXegVm9H5sP3-1">
          <mxGeometry x="410" y="840" width="80" height="80" as="geometry" />
        </mxCell>
        <mxCell id="tL6zu44cMN05sNJDktga-14" value="SI" style="endArrow=classic;html=1;fontFamily=Courier New;exitX=0;exitY=0.5;exitDx=0;exitDy=0;entryX=1;entryY=0.5;entryDx=0;entryDy=0;" edge="1" parent="0J6D3aMpqXegVm9H5sP3-1" source="tL6zu44cMN05sNJDktga-13" target="tL6zu44cMN05sNJDktga-16">
          <mxGeometry width="50" height="50" relative="1" as="geometry">
            <mxPoint x="-144" y="740" as="sourcePoint" />
            <mxPoint x="190" y="890" as="targetPoint" />
          </mxGeometry>
        </mxCell>
        <mxCell id="tL6zu44cMN05sNJDktga-16" value="final" style="rounded=0;whiteSpace=wrap;html=1;fontFamily=Courier New;" vertex="1" parent="0J6D3aMpqXegVm9H5sP3-1">
          <mxGeometry x="100" y="850" width="120" height="60" as="geometry" />
        </mxCell>
        <mxCell id="tL6zu44cMN05sNJDktga-18" value="&lt;div align=&quot;center&quot;&gt;&lt;b&gt;Warning!&lt;/b&gt;&lt;/div&gt;&lt;div align=&quot;left&quot;&gt;Probable error de diseño si es una variable&lt;br&gt;&lt;/div&gt;" style="shape=note;size=20;whiteSpace=wrap;html=1;fontFamily=Courier New;perimeterSpacing=0;" vertex="1" parent="0J6D3aMpqXegVm9H5sP3-1">
          <mxGeometry x="690" y="620" width="100" height="100" as="geometry" />
        </mxCell>
        <mxCell id="tL6zu44cMN05sNJDktga-19" value="Por defecto para campos" style="shape=note;size=20;whiteSpace=wrap;html=1;fontFamily=Courier New;" vertex="1" parent="0J6D3aMpqXegVm9H5sP3-1">
          <mxGeometry x="300" y="750" width="100" height="70" as="geometry" />
        </mxCell>
        <mxCell id="tL6zu44cMN05sNJDktga-21" value="" style="endArrow=classic;html=1;fontFamily=Courier New;exitX=0.5;exitY=1;exitDx=0;exitDy=0;entryX=0.5;entryY=0;entryDx=0;entryDy=0;" edge="1" parent="0J6D3aMpqXegVm9H5sP3-1" source="0J6D3aMpqXegVm9H5sP3-15" target="tL6zu44cMN05sNJDktga-13">
          <mxGeometry width="50" height="50" relative="1" as="geometry">
            <mxPoint x="390" y="610" as="sourcePoint" />
            <mxPoint x="440" y="560" as="targetPoint" />
          </mxGeometry>
        </mxCell>
        <mxCell id="tL6zu44cMN05sNJDktga-22" value="" style="endArrow=classic;html=1;fontFamily=Courier New;exitX=0.5;exitY=1;exitDx=0;exitDy=0;entryX=1;entryY=0.5;entryDx=0;entryDy=0;" edge="1" parent="0J6D3aMpqXegVm9H5sP3-1" source="0J6D3aMpqXegVm9H5sP3-13" target="tL6zu44cMN05sNJDktga-13">
          <mxGeometry width="50" height="50" relative="1" as="geometry">
            <mxPoint x="390" y="610" as="sourcePoint" />
            <mxPoint x="440" y="560" as="targetPoint" />
            <Array as="points">
              <mxPoint x="600" y="880" />
            </Array>
          </mxGeometry>
        </mxCell>
      </root>
    </mxGraphModel>
  </diagram>
</mxfile>
